# xmcd
# Track frame offsets:
# 150
# 15025
# 30799
# 42402
# 55359
# 66689
# 80623
# 94384
# 113926
# 125018
# 136617
# 149285
#
# Disc length: 2226 seconds
# Revision: 0
# Processed by: cddbd v1.5.1PL2 Copyright (c) Steve Scherf et al.
# Submitted via: VisiTrax 2.10.0.248 - For more info visit www.synapsa.com
#
DISCID=a208b00c
DTITLE=Johnny Cash - Hello I'm Johnny Cash
DYEAR=1970
DGENRE=Country
TTITLE0=Johnny Cash - Southwind;
TTITLE1=Johnny Cash - The Devil to Pay
TTITLE2=Johnny Cash - Cause I Love You
TTITLE3=Johnny Cash - See Ruby Fall
TTITLE4=Johnny Cash - Route 1 Box 144
TTITLE5=Johnny Cash - Sing a Traveling Song
TTITLE6=Johnny Cash (med June Carter) - - If I Were a Carpenter
TTITLE7=Johnny Cash - To Beat the Devil
TTITLE8=Johnny Cash - Blistered
TTITLE9=Johnny Cash - Wrinkled Crinkled Wadded Dollar Bill
TTITLE10=Johnny Cash - I've Got a Thing About Trains
TTITLE11=Johnny Cash - Jesus Was a Carpenter
EXTD=CS 9943 - CBS LP  63796
EXTT0=
EXTT1=
EXTT2=
EXTT3=
EXTT4=
EXTT5=
EXTT6=
EXTT7=
EXTT8=
EXTT9=
EXTT10=
EXTT11=
PLAYORDER=
